<mxfile host="app.diagrams.net" agent="Mozilla/5.0 (Windows NT 10.0; Win64; x64; rv:134.0) Gecko/20100101 Firefox/134.0" version="26.0.5">
  <diagram name="Page-1" id="H4sONhvKyHtje3pTV-qF">
    <mxGraphModel dx="2060" dy="1141" grid="1" gridSize="10" guides="1" tooltips="1" connect="1" arrows="1" fold="1" page="1" pageScale="1" pageWidth="850" pageHeight="1100" math="0" shadow="0">
      <root>
        <mxCell id="0" />
        <mxCell id="1" parent="0" />
        <mxCell id="J6gOtMhQ5AHENFdBQ14g-9" value="" style="rounded=0;whiteSpace=wrap;html=1;fillColor=#FFFFFF;strokeColor=#FFFFFF;" vertex="1" parent="1">
          <mxGeometry x="150" y="160" width="820" height="630" as="geometry" />
        </mxCell>
        <mxCell id="kbPqY_EedMQAxYhCuao2-4" value="" style="rounded=1;whiteSpace=wrap;html=1;fillColor=#7EA6E0;" parent="1" vertex="1">
          <mxGeometry x="315" y="195" width="190" height="45" as="geometry" />
        </mxCell>
        <mxCell id="kbPqY_EedMQAxYhCuao2-5" value="" style="rounded=1;whiteSpace=wrap;html=1;fillColor=#000099;" parent="1" vertex="1">
          <mxGeometry x="537.5" y="195" width="190" height="45" as="geometry" />
        </mxCell>
        <mxCell id="kbPqY_EedMQAxYhCuao2-6" value="" style="rounded=1;whiteSpace=wrap;html=1;fillColor=#7EA6E0;" parent="1" vertex="1">
          <mxGeometry x="767.5" y="192.5" width="170" height="45" as="geometry" />
        </mxCell>
        <mxCell id="kbPqY_EedMQAxYhCuao2-7" value="&lt;font style=&quot;font-size: 21px;&quot; face=&quot;Times New Roman&quot;&gt;&lt;span style=&quot;color: rgb(255, 255, 255);&quot;&gt;Flight Search&lt;/span&gt;&lt;/font&gt;" style="text;strokeColor=none;align=center;fillColor=none;html=1;verticalAlign=middle;whiteSpace=wrap;rounded=0;fontColor=#0000FF;" parent="1" vertex="1">
          <mxGeometry x="327.5" y="192.5" width="165" height="50" as="geometry" />
        </mxCell>
        <mxCell id="kbPqY_EedMQAxYhCuao2-8" value="&lt;font style=&quot;font-size: 20px; color: rgb(255, 255, 255);&quot; face=&quot;Times New Roman&quot;&gt;Gate Map&lt;br&gt;&lt;/font&gt;" style="text;strokeColor=none;align=center;fillColor=none;html=1;verticalAlign=middle;whiteSpace=wrap;rounded=0;fontColor=#0000FF;" parent="1" vertex="1">
          <mxGeometry x="550" y="192.5" width="165" height="50" as="geometry" />
        </mxCell>
        <mxCell id="kbPqY_EedMQAxYhCuao2-9" value="&lt;font style=&quot;font-size: 19px; color: rgb(255, 255, 255);&quot; face=&quot;Times New Roman&quot;&gt;Status Board&lt;/font&gt;" style="text;strokeColor=none;align=center;fillColor=none;html=1;verticalAlign=middle;whiteSpace=wrap;rounded=0;fontColor=#0000FF;" parent="1" vertex="1">
          <mxGeometry x="782.5" y="190" width="140" height="50" as="geometry" />
        </mxCell>
        <mxCell id="J6gOtMhQ5AHENFdBQ14g-11" value="" style="rounded=0;whiteSpace=wrap;html=1;fillColor=#7EA6E0;strokeWidth=0;" vertex="1" parent="1">
          <mxGeometry x="147.5" y="160" width="142.5" height="630" as="geometry" />
        </mxCell>
        <mxCell id="kbPqY_EedMQAxYhCuao2-36" value="" style="rounded=0;whiteSpace=wrap;html=1;fillColor=#dae8fc;strokeColor=#6c8ebf;" parent="1" vertex="1">
          <mxGeometry x="340" y="340" width="80" height="60" as="geometry" />
        </mxCell>
        <mxCell id="kbPqY_EedMQAxYhCuao2-37" value="" style="rounded=0;whiteSpace=wrap;html=1;fillColor=#e1d5e7;strokeColor=#9673a6;" parent="1" vertex="1">
          <mxGeometry x="450" y="340" width="80" height="60" as="geometry" />
        </mxCell>
        <mxCell id="kbPqY_EedMQAxYhCuao2-38" value="" style="rounded=0;whiteSpace=wrap;html=1;fillColor=#d5e8d4;strokeColor=#82b366;" parent="1" vertex="1">
          <mxGeometry x="560" y="340" width="80" height="60" as="geometry" />
        </mxCell>
        <mxCell id="kbPqY_EedMQAxYhCuao2-39" value="" style="rounded=0;whiteSpace=wrap;html=1;fillColor=#fff2cc;strokeColor=#d6b656;" parent="1" vertex="1">
          <mxGeometry x="670" y="340" width="80" height="60" as="geometry" />
        </mxCell>
        <mxCell id="kbPqY_EedMQAxYhCuao2-40" value="" style="rounded=0;whiteSpace=wrap;html=1;fillColor=#dae8fc;strokeColor=#6c8ebf;" parent="1" vertex="1">
          <mxGeometry x="780" y="340" width="80" height="60" as="geometry" />
        </mxCell>
        <mxCell id="kbPqY_EedMQAxYhCuao2-58" value="Gate" style="text;strokeColor=none;align=center;fillColor=none;html=1;verticalAlign=middle;whiteSpace=wrap;rounded=0;" parent="1" vertex="1">
          <mxGeometry x="347.5" y="340" width="60" height="20" as="geometry" />
        </mxCell>
        <mxCell id="kbPqY_EedMQAxYhCuao2-59" value="A1" style="text;strokeColor=none;align=center;fillColor=none;html=1;verticalAlign=middle;whiteSpace=wrap;rounded=0;" parent="1" vertex="1">
          <mxGeometry x="347.5" y="355" width="60" height="30" as="geometry" />
        </mxCell>
        <mxCell id="kbPqY_EedMQAxYhCuao2-60" value="AA123" style="text;strokeColor=none;align=center;fillColor=none;html=1;verticalAlign=middle;whiteSpace=wrap;rounded=0;" parent="1" vertex="1">
          <mxGeometry x="347.5" y="370" width="60" height="30" as="geometry" />
        </mxCell>
        <mxCell id="kbPqY_EedMQAxYhCuao2-62" value="Gate" style="text;strokeColor=none;align=center;fillColor=none;html=1;verticalAlign=middle;whiteSpace=wrap;rounded=0;" parent="1" vertex="1">
          <mxGeometry x="460" y="340" width="60" height="20" as="geometry" />
        </mxCell>
        <mxCell id="kbPqY_EedMQAxYhCuao2-63" value="Gate" style="text;strokeColor=none;align=center;fillColor=none;html=1;verticalAlign=middle;whiteSpace=wrap;rounded=0;" parent="1" vertex="1">
          <mxGeometry x="570" y="340" width="60" height="20" as="geometry" />
        </mxCell>
        <mxCell id="kbPqY_EedMQAxYhCuao2-64" value="Gate" style="text;strokeColor=none;align=center;fillColor=none;html=1;verticalAlign=middle;whiteSpace=wrap;rounded=0;" parent="1" vertex="1">
          <mxGeometry x="680" y="340" width="60" height="20" as="geometry" />
        </mxCell>
        <mxCell id="kbPqY_EedMQAxYhCuao2-65" value="Gate" style="text;strokeColor=none;align=center;fillColor=none;html=1;verticalAlign=middle;whiteSpace=wrap;rounded=0;" parent="1" vertex="1">
          <mxGeometry x="790" y="340" width="60" height="20" as="geometry" />
        </mxCell>
        <mxCell id="kbPqY_EedMQAxYhCuao2-66" value="AA123" style="text;strokeColor=none;align=center;fillColor=none;html=1;verticalAlign=middle;whiteSpace=wrap;rounded=0;" parent="1" vertex="1">
          <mxGeometry x="460" y="370" width="60" height="30" as="geometry" />
        </mxCell>
        <mxCell id="kbPqY_EedMQAxYhCuao2-67" value="AA123" style="text;strokeColor=none;align=center;fillColor=none;html=1;verticalAlign=middle;whiteSpace=wrap;rounded=0;" parent="1" vertex="1">
          <mxGeometry x="570" y="370" width="60" height="30" as="geometry" />
        </mxCell>
        <mxCell id="kbPqY_EedMQAxYhCuao2-68" value="AA123" style="text;strokeColor=none;align=center;fillColor=none;html=1;verticalAlign=middle;whiteSpace=wrap;rounded=0;" parent="1" vertex="1">
          <mxGeometry x="680" y="370" width="60" height="30" as="geometry" />
        </mxCell>
        <mxCell id="kbPqY_EedMQAxYhCuao2-69" value="AA123" style="text;strokeColor=none;align=center;fillColor=none;html=1;verticalAlign=middle;whiteSpace=wrap;rounded=0;" parent="1" vertex="1">
          <mxGeometry x="790" y="370" width="60" height="30" as="geometry" />
        </mxCell>
        <mxCell id="kbPqY_EedMQAxYhCuao2-70" value="A2" style="text;strokeColor=none;align=center;fillColor=none;html=1;verticalAlign=middle;whiteSpace=wrap;rounded=0;" parent="1" vertex="1">
          <mxGeometry x="460" y="355" width="60" height="30" as="geometry" />
        </mxCell>
        <mxCell id="kbPqY_EedMQAxYhCuao2-71" value="A3" style="text;strokeColor=none;align=center;fillColor=none;html=1;verticalAlign=middle;whiteSpace=wrap;rounded=0;" parent="1" vertex="1">
          <mxGeometry x="570" y="355" width="60" height="30" as="geometry" />
        </mxCell>
        <mxCell id="kbPqY_EedMQAxYhCuao2-72" value="A4" style="text;strokeColor=none;align=center;fillColor=none;html=1;verticalAlign=middle;whiteSpace=wrap;rounded=0;" parent="1" vertex="1">
          <mxGeometry x="680" y="355" width="60" height="30" as="geometry" />
        </mxCell>
        <mxCell id="kbPqY_EedMQAxYhCuao2-73" value="A5" style="text;strokeColor=none;align=center;fillColor=none;html=1;verticalAlign=middle;whiteSpace=wrap;rounded=0;" parent="1" vertex="1">
          <mxGeometry x="790" y="355" width="60" height="30" as="geometry" />
        </mxCell>
        <mxCell id="kbPqY_EedMQAxYhCuao2-74" value="&lt;font style=&quot;font-size: 20px; color: rgb(0, 0, 0);&quot; face=&quot;Times New Roman&quot;&gt;Terminal 2&lt;br&gt;&lt;/font&gt;" style="text;align=center;html=1;verticalAlign=middle;whiteSpace=wrap;rounded=0;" parent="1" vertex="1">
          <mxGeometry x="125" y="430" width="165" height="50" as="geometry" />
        </mxCell>
        <mxCell id="kbPqY_EedMQAxYhCuao2-75" value="" style="rounded=0;whiteSpace=wrap;html=1;fillColor=#dae8fc;strokeColor=#6c8ebf;" parent="1" vertex="1">
          <mxGeometry x="340" y="430" width="80" height="60" as="geometry" />
        </mxCell>
        <mxCell id="kbPqY_EedMQAxYhCuao2-76" value="" style="rounded=0;whiteSpace=wrap;html=1;fillColor=#e1d5e7;strokeColor=#9673a6;" parent="1" vertex="1">
          <mxGeometry x="450" y="430" width="80" height="60" as="geometry" />
        </mxCell>
        <mxCell id="kbPqY_EedMQAxYhCuao2-77" value="" style="rounded=0;whiteSpace=wrap;html=1;fillColor=#d5e8d4;strokeColor=#82b366;" parent="1" vertex="1">
          <mxGeometry x="560" y="430" width="80" height="60" as="geometry" />
        </mxCell>
        <mxCell id="kbPqY_EedMQAxYhCuao2-78" value="" style="rounded=0;whiteSpace=wrap;html=1;fillColor=#fff2cc;strokeColor=#d6b656;" parent="1" vertex="1">
          <mxGeometry x="670" y="430" width="80" height="60" as="geometry" />
        </mxCell>
        <mxCell id="kbPqY_EedMQAxYhCuao2-79" value="" style="rounded=0;whiteSpace=wrap;html=1;fillColor=#dae8fc;strokeColor=#6c8ebf;" parent="1" vertex="1">
          <mxGeometry x="780" y="430" width="80" height="60" as="geometry" />
        </mxCell>
        <mxCell id="kbPqY_EedMQAxYhCuao2-80" value="Gate" style="text;strokeColor=none;align=center;fillColor=none;html=1;verticalAlign=middle;whiteSpace=wrap;rounded=0;" parent="1" vertex="1">
          <mxGeometry x="347.5" y="430" width="60" height="20" as="geometry" />
        </mxCell>
        <mxCell id="kbPqY_EedMQAxYhCuao2-81" value="B1" style="text;strokeColor=none;align=center;fillColor=none;html=1;verticalAlign=middle;whiteSpace=wrap;rounded=0;" parent="1" vertex="1">
          <mxGeometry x="347.5" y="445" width="60" height="30" as="geometry" />
        </mxCell>
        <mxCell id="kbPqY_EedMQAxYhCuao2-82" value="AA123" style="text;strokeColor=none;align=center;fillColor=none;html=1;verticalAlign=middle;whiteSpace=wrap;rounded=0;" parent="1" vertex="1">
          <mxGeometry x="347.5" y="460" width="60" height="30" as="geometry" />
        </mxCell>
        <mxCell id="kbPqY_EedMQAxYhCuao2-83" value="Gate" style="text;strokeColor=none;align=center;fillColor=none;html=1;verticalAlign=middle;whiteSpace=wrap;rounded=0;" parent="1" vertex="1">
          <mxGeometry x="460" y="430" width="60" height="20" as="geometry" />
        </mxCell>
        <mxCell id="kbPqY_EedMQAxYhCuao2-84" value="Gate" style="text;strokeColor=none;align=center;fillColor=none;html=1;verticalAlign=middle;whiteSpace=wrap;rounded=0;" parent="1" vertex="1">
          <mxGeometry x="570" y="430" width="60" height="20" as="geometry" />
        </mxCell>
        <mxCell id="kbPqY_EedMQAxYhCuao2-85" value="Gate" style="text;strokeColor=none;align=center;fillColor=none;html=1;verticalAlign=middle;whiteSpace=wrap;rounded=0;" parent="1" vertex="1">
          <mxGeometry x="680" y="430" width="60" height="20" as="geometry" />
        </mxCell>
        <mxCell id="kbPqY_EedMQAxYhCuao2-86" value="Gate" style="text;strokeColor=none;align=center;fillColor=none;html=1;verticalAlign=middle;whiteSpace=wrap;rounded=0;" parent="1" vertex="1">
          <mxGeometry x="790" y="430" width="60" height="20" as="geometry" />
        </mxCell>
        <mxCell id="kbPqY_EedMQAxYhCuao2-87" value="AA123" style="text;strokeColor=none;align=center;fillColor=none;html=1;verticalAlign=middle;whiteSpace=wrap;rounded=0;" parent="1" vertex="1">
          <mxGeometry x="460" y="460" width="60" height="30" as="geometry" />
        </mxCell>
        <mxCell id="kbPqY_EedMQAxYhCuao2-88" value="AA123" style="text;strokeColor=none;align=center;fillColor=none;html=1;verticalAlign=middle;whiteSpace=wrap;rounded=0;" parent="1" vertex="1">
          <mxGeometry x="570" y="460" width="60" height="30" as="geometry" />
        </mxCell>
        <mxCell id="kbPqY_EedMQAxYhCuao2-89" value="AA123" style="text;strokeColor=none;align=center;fillColor=none;html=1;verticalAlign=middle;whiteSpace=wrap;rounded=0;" parent="1" vertex="1">
          <mxGeometry x="680" y="460" width="60" height="30" as="geometry" />
        </mxCell>
        <mxCell id="kbPqY_EedMQAxYhCuao2-90" value="AA123" style="text;strokeColor=none;align=center;fillColor=none;html=1;verticalAlign=middle;whiteSpace=wrap;rounded=0;" parent="1" vertex="1">
          <mxGeometry x="790" y="460" width="60" height="30" as="geometry" />
        </mxCell>
        <mxCell id="kbPqY_EedMQAxYhCuao2-91" value="B2" style="text;strokeColor=none;align=center;fillColor=none;html=1;verticalAlign=middle;whiteSpace=wrap;rounded=0;" parent="1" vertex="1">
          <mxGeometry x="460" y="445" width="60" height="30" as="geometry" />
        </mxCell>
        <mxCell id="kbPqY_EedMQAxYhCuao2-92" value="B3" style="text;strokeColor=none;align=center;fillColor=none;html=1;verticalAlign=middle;whiteSpace=wrap;rounded=0;" parent="1" vertex="1">
          <mxGeometry x="570" y="445" width="60" height="30" as="geometry" />
        </mxCell>
        <mxCell id="kbPqY_EedMQAxYhCuao2-93" value="B4" style="text;strokeColor=none;align=center;fillColor=none;html=1;verticalAlign=middle;whiteSpace=wrap;rounded=0;" parent="1" vertex="1">
          <mxGeometry x="680" y="445" width="60" height="30" as="geometry" />
        </mxCell>
        <mxCell id="kbPqY_EedMQAxYhCuao2-94" value="B5" style="text;strokeColor=none;align=center;fillColor=none;html=1;verticalAlign=middle;whiteSpace=wrap;rounded=0;" parent="1" vertex="1">
          <mxGeometry x="790" y="445" width="60" height="30" as="geometry" />
        </mxCell>
        <mxCell id="kbPqY_EedMQAxYhCuao2-95" value="&lt;font style=&quot;font-size: 20px; color: rgb(0, 0, 0);&quot; face=&quot;Times New Roman&quot;&gt;Terminal 3&lt;br&gt;&lt;/font&gt;" style="text;align=center;html=1;verticalAlign=middle;whiteSpace=wrap;rounded=0;" parent="1" vertex="1">
          <mxGeometry x="127.5" y="530" width="165" height="50" as="geometry" />
        </mxCell>
        <mxCell id="kbPqY_EedMQAxYhCuao2-96" value="" style="rounded=0;whiteSpace=wrap;html=1;fillColor=#dae8fc;strokeColor=#6c8ebf;" parent="1" vertex="1">
          <mxGeometry x="342.5" y="530" width="80" height="60" as="geometry" />
        </mxCell>
        <mxCell id="kbPqY_EedMQAxYhCuao2-97" value="" style="rounded=0;whiteSpace=wrap;html=1;fillColor=#e1d5e7;strokeColor=#9673a6;" parent="1" vertex="1">
          <mxGeometry x="452.5" y="530" width="80" height="60" as="geometry" />
        </mxCell>
        <mxCell id="kbPqY_EedMQAxYhCuao2-98" value="" style="rounded=0;whiteSpace=wrap;html=1;fillColor=#d5e8d4;strokeColor=#82b366;" parent="1" vertex="1">
          <mxGeometry x="562.5" y="530" width="80" height="60" as="geometry" />
        </mxCell>
        <mxCell id="kbPqY_EedMQAxYhCuao2-99" value="" style="rounded=0;whiteSpace=wrap;html=1;fillColor=#fff2cc;strokeColor=#d6b656;" parent="1" vertex="1">
          <mxGeometry x="672.5" y="530" width="80" height="60" as="geometry" />
        </mxCell>
        <mxCell id="kbPqY_EedMQAxYhCuao2-100" value="" style="rounded=0;whiteSpace=wrap;html=1;fillColor=#dae8fc;strokeColor=#6c8ebf;" parent="1" vertex="1">
          <mxGeometry x="782.5" y="530" width="80" height="60" as="geometry" />
        </mxCell>
        <mxCell id="kbPqY_EedMQAxYhCuao2-101" value="Gate" style="text;strokeColor=none;align=center;fillColor=none;html=1;verticalAlign=middle;whiteSpace=wrap;rounded=0;" parent="1" vertex="1">
          <mxGeometry x="350" y="530" width="60" height="20" as="geometry" />
        </mxCell>
        <mxCell id="kbPqY_EedMQAxYhCuao2-102" value="C1" style="text;strokeColor=none;align=center;fillColor=none;html=1;verticalAlign=middle;whiteSpace=wrap;rounded=0;" parent="1" vertex="1">
          <mxGeometry x="350" y="545" width="60" height="30" as="geometry" />
        </mxCell>
        <mxCell id="kbPqY_EedMQAxYhCuao2-103" value="AA123" style="text;strokeColor=none;align=center;fillColor=none;html=1;verticalAlign=middle;whiteSpace=wrap;rounded=0;" parent="1" vertex="1">
          <mxGeometry x="350" y="560" width="60" height="30" as="geometry" />
        </mxCell>
        <mxCell id="kbPqY_EedMQAxYhCuao2-104" value="Gate" style="text;strokeColor=none;align=center;fillColor=none;html=1;verticalAlign=middle;whiteSpace=wrap;rounded=0;" parent="1" vertex="1">
          <mxGeometry x="462.5" y="530" width="60" height="20" as="geometry" />
        </mxCell>
        <mxCell id="kbPqY_EedMQAxYhCuao2-105" value="Gate" style="text;strokeColor=none;align=center;fillColor=none;html=1;verticalAlign=middle;whiteSpace=wrap;rounded=0;" parent="1" vertex="1">
          <mxGeometry x="572.5" y="530" width="60" height="20" as="geometry" />
        </mxCell>
        <mxCell id="kbPqY_EedMQAxYhCuao2-106" value="Gate" style="text;strokeColor=none;align=center;fillColor=none;html=1;verticalAlign=middle;whiteSpace=wrap;rounded=0;" parent="1" vertex="1">
          <mxGeometry x="682.5" y="530" width="60" height="20" as="geometry" />
        </mxCell>
        <mxCell id="kbPqY_EedMQAxYhCuao2-107" value="Gate" style="text;strokeColor=none;align=center;fillColor=none;html=1;verticalAlign=middle;whiteSpace=wrap;rounded=0;" parent="1" vertex="1">
          <mxGeometry x="792.5" y="530" width="60" height="20" as="geometry" />
        </mxCell>
        <mxCell id="kbPqY_EedMQAxYhCuao2-108" value="AA123" style="text;strokeColor=none;align=center;fillColor=none;html=1;verticalAlign=middle;whiteSpace=wrap;rounded=0;" parent="1" vertex="1">
          <mxGeometry x="462.5" y="560" width="60" height="30" as="geometry" />
        </mxCell>
        <mxCell id="kbPqY_EedMQAxYhCuao2-109" value="AA123" style="text;strokeColor=none;align=center;fillColor=none;html=1;verticalAlign=middle;whiteSpace=wrap;rounded=0;" parent="1" vertex="1">
          <mxGeometry x="572.5" y="560" width="60" height="30" as="geometry" />
        </mxCell>
        <mxCell id="kbPqY_EedMQAxYhCuao2-110" value="AA123" style="text;strokeColor=none;align=center;fillColor=none;html=1;verticalAlign=middle;whiteSpace=wrap;rounded=0;" parent="1" vertex="1">
          <mxGeometry x="682.5" y="560" width="60" height="30" as="geometry" />
        </mxCell>
        <mxCell id="kbPqY_EedMQAxYhCuao2-111" value="AA123" style="text;strokeColor=none;align=center;fillColor=none;html=1;verticalAlign=middle;whiteSpace=wrap;rounded=0;" parent="1" vertex="1">
          <mxGeometry x="792.5" y="560" width="60" height="30" as="geometry" />
        </mxCell>
        <mxCell id="kbPqY_EedMQAxYhCuao2-112" value="C2" style="text;strokeColor=none;align=center;fillColor=none;html=1;verticalAlign=middle;whiteSpace=wrap;rounded=0;" parent="1" vertex="1">
          <mxGeometry x="462.5" y="545" width="60" height="30" as="geometry" />
        </mxCell>
        <mxCell id="kbPqY_EedMQAxYhCuao2-113" value="C3" style="text;strokeColor=none;align=center;fillColor=none;html=1;verticalAlign=middle;whiteSpace=wrap;rounded=0;" parent="1" vertex="1">
          <mxGeometry x="572.5" y="545" width="60" height="30" as="geometry" />
        </mxCell>
        <mxCell id="kbPqY_EedMQAxYhCuao2-114" value="C4" style="text;strokeColor=none;align=center;fillColor=none;html=1;verticalAlign=middle;whiteSpace=wrap;rounded=0;" parent="1" vertex="1">
          <mxGeometry x="682.5" y="545" width="60" height="30" as="geometry" />
        </mxCell>
        <mxCell id="kbPqY_EedMQAxYhCuao2-115" value="C5" style="text;strokeColor=none;align=center;fillColor=none;html=1;verticalAlign=middle;whiteSpace=wrap;rounded=0;" parent="1" vertex="1">
          <mxGeometry x="792.5" y="545" width="60" height="30" as="geometry" />
        </mxCell>
        <mxCell id="kbPqY_EedMQAxYhCuao2-116" value="&lt;font style=&quot;font-size: 20px; color: rgb(0, 0, 0);&quot; face=&quot;Times New Roman&quot;&gt;Terminal 4&lt;br&gt;&lt;/font&gt;" style="text;align=center;html=1;verticalAlign=middle;whiteSpace=wrap;rounded=0;" parent="1" vertex="1">
          <mxGeometry x="130" y="620" width="165" height="50" as="geometry" />
        </mxCell>
        <mxCell id="kbPqY_EedMQAxYhCuao2-117" value="" style="rounded=0;whiteSpace=wrap;html=1;fillColor=#dae8fc;strokeColor=#6c8ebf;" parent="1" vertex="1">
          <mxGeometry x="345" y="620" width="80" height="60" as="geometry" />
        </mxCell>
        <mxCell id="kbPqY_EedMQAxYhCuao2-118" value="" style="rounded=0;whiteSpace=wrap;html=1;fillColor=#e1d5e7;strokeColor=#9673a6;" parent="1" vertex="1">
          <mxGeometry x="455" y="620" width="80" height="60" as="geometry" />
        </mxCell>
        <mxCell id="kbPqY_EedMQAxYhCuao2-119" value="" style="rounded=0;whiteSpace=wrap;html=1;fillColor=#d5e8d4;strokeColor=#82b366;" parent="1" vertex="1">
          <mxGeometry x="565" y="620" width="80" height="60" as="geometry" />
        </mxCell>
        <mxCell id="kbPqY_EedMQAxYhCuao2-120" value="" style="rounded=0;whiteSpace=wrap;html=1;fillColor=#fff2cc;strokeColor=#d6b656;" parent="1" vertex="1">
          <mxGeometry x="675" y="620" width="80" height="60" as="geometry" />
        </mxCell>
        <mxCell id="kbPqY_EedMQAxYhCuao2-121" value="" style="rounded=0;whiteSpace=wrap;html=1;fillColor=#dae8fc;strokeColor=#6c8ebf;" parent="1" vertex="1">
          <mxGeometry x="785" y="620" width="80" height="60" as="geometry" />
        </mxCell>
        <mxCell id="kbPqY_EedMQAxYhCuao2-122" value="Gate" style="text;strokeColor=none;align=center;fillColor=none;html=1;verticalAlign=middle;whiteSpace=wrap;rounded=0;" parent="1" vertex="1">
          <mxGeometry x="352.5" y="620" width="60" height="20" as="geometry" />
        </mxCell>
        <mxCell id="kbPqY_EedMQAxYhCuao2-123" value="D1" style="text;strokeColor=none;align=center;fillColor=none;html=1;verticalAlign=middle;whiteSpace=wrap;rounded=0;" parent="1" vertex="1">
          <mxGeometry x="352.5" y="635" width="60" height="30" as="geometry" />
        </mxCell>
        <mxCell id="kbPqY_EedMQAxYhCuao2-124" value="AA123" style="text;strokeColor=none;align=center;fillColor=none;html=1;verticalAlign=middle;whiteSpace=wrap;rounded=0;" parent="1" vertex="1">
          <mxGeometry x="352.5" y="650" width="60" height="30" as="geometry" />
        </mxCell>
        <mxCell id="kbPqY_EedMQAxYhCuao2-125" value="Gate" style="text;strokeColor=none;align=center;fillColor=none;html=1;verticalAlign=middle;whiteSpace=wrap;rounded=0;" parent="1" vertex="1">
          <mxGeometry x="465" y="620" width="60" height="20" as="geometry" />
        </mxCell>
        <mxCell id="kbPqY_EedMQAxYhCuao2-126" value="Gate" style="text;strokeColor=none;align=center;fillColor=none;html=1;verticalAlign=middle;whiteSpace=wrap;rounded=0;" parent="1" vertex="1">
          <mxGeometry x="575" y="620" width="60" height="20" as="geometry" />
        </mxCell>
        <mxCell id="kbPqY_EedMQAxYhCuao2-127" value="Gate" style="text;strokeColor=none;align=center;fillColor=none;html=1;verticalAlign=middle;whiteSpace=wrap;rounded=0;" parent="1" vertex="1">
          <mxGeometry x="685" y="620" width="60" height="20" as="geometry" />
        </mxCell>
        <mxCell id="kbPqY_EedMQAxYhCuao2-128" value="Gate" style="text;strokeColor=none;align=center;fillColor=none;html=1;verticalAlign=middle;whiteSpace=wrap;rounded=0;" parent="1" vertex="1">
          <mxGeometry x="795" y="620" width="60" height="20" as="geometry" />
        </mxCell>
        <mxCell id="kbPqY_EedMQAxYhCuao2-129" value="AA123" style="text;strokeColor=none;align=center;fillColor=none;html=1;verticalAlign=middle;whiteSpace=wrap;rounded=0;" parent="1" vertex="1">
          <mxGeometry x="465" y="650" width="60" height="30" as="geometry" />
        </mxCell>
        <mxCell id="kbPqY_EedMQAxYhCuao2-130" value="AA123" style="text;strokeColor=none;align=center;fillColor=none;html=1;verticalAlign=middle;whiteSpace=wrap;rounded=0;" parent="1" vertex="1">
          <mxGeometry x="575" y="650" width="60" height="30" as="geometry" />
        </mxCell>
        <mxCell id="kbPqY_EedMQAxYhCuao2-131" value="AA123" style="text;strokeColor=none;align=center;fillColor=none;html=1;verticalAlign=middle;whiteSpace=wrap;rounded=0;" parent="1" vertex="1">
          <mxGeometry x="685" y="650" width="60" height="30" as="geometry" />
        </mxCell>
        <mxCell id="kbPqY_EedMQAxYhCuao2-132" value="AA123" style="text;strokeColor=none;align=center;fillColor=none;html=1;verticalAlign=middle;whiteSpace=wrap;rounded=0;" parent="1" vertex="1">
          <mxGeometry x="795" y="650" width="60" height="30" as="geometry" />
        </mxCell>
        <mxCell id="kbPqY_EedMQAxYhCuao2-133" value="D2" style="text;strokeColor=none;align=center;fillColor=none;html=1;verticalAlign=middle;whiteSpace=wrap;rounded=0;" parent="1" vertex="1">
          <mxGeometry x="465" y="635" width="60" height="30" as="geometry" />
        </mxCell>
        <mxCell id="kbPqY_EedMQAxYhCuao2-134" value="D3" style="text;strokeColor=none;align=center;fillColor=none;html=1;verticalAlign=middle;whiteSpace=wrap;rounded=0;" parent="1" vertex="1">
          <mxGeometry x="575" y="635" width="60" height="30" as="geometry" />
        </mxCell>
        <mxCell id="kbPqY_EedMQAxYhCuao2-135" value="D4" style="text;strokeColor=none;align=center;fillColor=none;html=1;verticalAlign=middle;whiteSpace=wrap;rounded=0;" parent="1" vertex="1">
          <mxGeometry x="685" y="635" width="60" height="30" as="geometry" />
        </mxCell>
        <mxCell id="kbPqY_EedMQAxYhCuao2-136" value="D5" style="text;strokeColor=none;align=center;fillColor=none;html=1;verticalAlign=middle;whiteSpace=wrap;rounded=0;" parent="1" vertex="1">
          <mxGeometry x="795" y="635" width="60" height="30" as="geometry" />
        </mxCell>
        <mxCell id="kbPqY_EedMQAxYhCuao2-32" value="&lt;font style=&quot;font-size: 20px; color: rgb(0, 0, 0);&quot; face=&quot;Times New Roman&quot;&gt;Terminal 1&lt;br&gt;&lt;/font&gt;" style="text;align=center;html=1;verticalAlign=middle;whiteSpace=wrap;rounded=0;" parent="1" vertex="1">
          <mxGeometry x="130" y="345" width="165" height="50" as="geometry" />
        </mxCell>
        <mxCell id="kbPqY_EedMQAxYhCuao2-3" value="" style="shape=image;verticalLabelPosition=bottom;labelBackgroundColor=default;verticalAlign=top;aspect=fixed;imageAspect=0;editableCssRules=.*;image=data:image/svg+xml,PHN2ZyB4bWxucz0iaHR0cDovL3d3dy53My5vcmcvMjAwMC9zdmciIHdpZHRoPSI1ODAiIGhlaWdodD0iNTgwIiB2aWV3Qm94PSIwIDAgNTgwIDU4MCI+PHBhdGggc3Ryb2tlLXdpZHRoPSIzLjQwOCIgc3Ryb2tlPSIjZWVlIiBmaWxsPSIjMTExIiBkPSJtNjYuMjc1IDEuNzY4Yy00MS4zMzUgMC02NC41NzEgMjEuMzcxLTY0LjU3MSA2NS4wMzZ2NDUwLjEyM2MwIDQwLjg0NCAyMC44OTUgNjIuMjI5IDYyLjE5MiA2Mi4yMjloNDUyLjAyNGM0MS4zMDcgMCA2Mi4yMjktMjAuMzE1IDYyLjIyOS02Mi4yMjl2LTQ1MC4xMjNjMC00Mi42MDEtMjAuOTIyLTY1LjAzNi02My41MjEtNjUuMDM2LS4wMDQgMC00NDguNDk1LS4xNDMtNDQ4LjM1MyAweiIvPjxnIGZpbGw9IiNmZmYiPjxwYXRoIHRyYW5zZm9ybT0ibWF0cml4KC4zNzIwMTIyNyAuNDg2OTI4NzIgLS40ODY5Mjg3MiAuMzcyMDEyMjcgNDU0LjAyNDU2IC01MS45ODE5KSIgZD0ibTE5Ni45MSAyNS4zODE1Yy4wNi0zNCA1MS4zMDktMzQgNTEuMjc1Ljk1OHYxNDIuNjkxNWwxOTkuNzY0IDEyMC4wNjR2NTIuNzE3bC0xOTguODA1LTY1LjQzdjEwNi42NDdsNDYuMDA4IDM1Ljk0NHY0MS42OTRsLTcwLjkyNy0yMi4wNDYtNzAuOTI3IDIyLjA0NnYtNDEuNjk0bDQ1LjUyOS0zNS45NDR2LTEwNi42NDdsLTE5OC44MjcgNjUuNDN2LTUyLjcxN2wxOTYuOTEtMTIwLjA2NHYtMTQzLjY0OTV6Ii8+PHBhdGggc3Ryb2tlLXdpZHRoPSIyMC43Njc2NDMiIHN0cm9rZS1saW5lam9pbj0icm91bmQiIHN0cm9rZS1saW5lY2FwPSJyb3VuZCIgc3Ryb2tlPSIjZmZmIiBkPSJtMzkuMDg5NjkxIDM3Ny43MzcwNHYxMTguODA0ODhoMzcyLjIzMDY1OXYtNjUuODQ5NzQtMS4wNzQ1NC0xLjA3NDU1aDExMS4wNDc5OHY2Ny45OTg4M2gxNy44OTc5NnYtMTE4LjgwNDg4em00Ljc1MzUzMyAzLjY5Mzc3aDExMS4wMTAzNzZ2NDEuMDAwNzhoLTExMS4wMTAzNzZ2LTM5LjYyNDAyLS43MDUxN3ptMTI1LjA5NTAzNiAwaDExMS4wMTAzOHY0MS4wMDA3OGgtMTExLjAxMDM4di0zOS42MjQwMi0uNzA1MTd6bTEyMi4yMDA0NSAwaDExMS4wMTAzN3Y0MS4wMDA3OGgtMTExLjAxMDM3di0zOS42MjQwMi0uNzA1MTd6bTEyMC4yMDA0NCAwaDExMS4wMTAzOHY0MS4wMDA3OGgtMTExLjAxMDM4di0zOS42MjQwMi0uNzA1MTd6bS0zNjcuNTE0NzI1IDQ3LjExMjI4aDExMS4wNDc5NzV2NjMuODM0OTVoLTExMS4wNDc5NzV2LTYxLjY4NTg2LTEuMDc0NTR6bTEyNS4yNDQxMzUgMGgxMTEuMDQ3OTh2NjMuODM0OTVoLTExMS4wNDc5OHYtNjEuNjg1ODYtMS4wNzQ1NHptMTIyLjA1MTM1IDBoMTExLjA0Nzk3djYzLjgzNDk1aC0xMTEuMDQ3OTd2LTYxLjY4NTg2LTEuMDc0NTR6Ii8+PHBhdGggc3Ryb2tlLXdpZHRoPSIyMS40OTA5OSIgc3Ryb2tlLWxpbmVqb2luPSJyb3VuZCIgc3Ryb2tlLWxpbmVjYXA9InJvdW5kIiBzdHJva2U9IiNmZmYiIGQ9Im04NS43MjgzNDIgMzc2LjUwOTg2YzE2Ni44MTI2MDggMC00NC42MTYxODggNiAxMjIuMTk2NDI4IDYgMC00Mi40NjcwOCAwLTUyLjY5NzcgMC05NS4xNjQ3OS0xNjYuODEyNjE2IDAgNDQuNjE2MTggMC0xMjIuMTk2NDI4IDB6Ii8+PHBhdGggc3Ryb2tlLXdpZHRoPSIyMS40OTA5OSIgc3Ryb2tlLWxpbmVqb2luPSJyb3VuZCIgc3Ryb2tlLWxpbmVjYXA9InJvdW5kIiBzdHJva2U9IiNmZmYiIGQ9Im04Ni4yMjA4MTggMjMyLjg2NjMxYzQuMDUzODc4IDIxLjE1MzEzIDEyLjE4NzQxMiA0NS4yNDYyOCAzMi45NzUyNDIgNTUuMjcyMTQgMTQuNjMwOCA3LjA4MTA0IDMxLjMzMTYxIDIuMDM2MDIgNDYuODc3MjIgMy44OTUyNCA5LjE3OTU2LTEuMjc3NzIgMTYuMzAxMTEtOC42MTc5NiAyMi4zNjQwNi0xNS4wNzcyNyA5Ljk2ODQ2LTEyLjExNDM0IDEzLjk5OTY2LTI3Ljc1NjQ2IDE4LjYzNjcyLTQyLjE3NjA3LTIuNTY1MDQtMy4zMDMyNS04LjYyNTk5LjE4NDU4LTEyLjI1NjQyLTEuMDEwODgtMzYuMTg3NzMtLjI4OTc5LTcyLjQ2NTA1LS42Njk4MS0xMDguNTk2ODIyLS45MDMxNnptMTIwLjU4NDYwMiAxLjMwOTZjLjExMTM3LS4wMzQ5LS4wNDYxLS4wNjIgMCAweiIvPjxwYXRoIHN0cm9rZS13aWR0aD0iOC44Mjk5NjIiIHN0cm9rZS1saW5lam9pbj0icm91bmQiIHN0cm9rZS1saW5lY2FwPSJyb3VuZCIgc3Ryb2tlPSIjZmZmIiBkPSJtNzkuMzk3ODI3IDE3MS4zNzA4N2gxMzQuODU3NDUzYzAtNi40OTU5MiAwLTguMDYwODQgMC0xNC41NTY3Ni0xODQuMDk2NDE3IDAgNDkuMjM4OTcgMC0xMzQuODU3NDUzIDB6Ii8+PHBhdGggc3Ryb2tlLXdpZHRoPSI4LjgyOTk2MiIgc3Ryb2tlLWxpbmVqb2luPSJyb3VuZCIgc3Ryb2tlLWxpbmVjYXA9InJvdW5kIiBzdHJva2U9IiNmZmYiIGQ9Im03OS4zOTc4MjcgMjMyLjgwMDE1aDEzNC44NTc0NTNjMC02LjQ5NTkyIDAtOC4wNjA4NCAwLTE0LjU1Njc2LTE4NC4wOTY0MTcgMCA0OS4yMzg5NyAwLTEzNC44NTc0NTMgMHoiLz48cGF0aCBzdHJva2Utd2lkdGg9IjE2LjU5OTI4NSIgc3Ryb2tlLWxpbmVqb2luPSJyb3VuZCIgc3Ryb2tlLWxpbmVjYXA9InJvdW5kIiBzdHJva2U9IiNmZmYiIG9wYWNpdHk9Ii41IiBkPSJtODMuMjgyNDg0IDIxNy4yODY2MWgxMjcuMDg4MTM2YzAtMjQuMzU5NyAwLTMwLjIyODE1IDAtNTQuNTg3ODQtMTczLjQ5MDM3NSAwIDQ2LjQwMjI0IDAtMTI3LjA4ODEzNiAweiIvPjxwYXRoIHN0cm9rZS13aWR0aD0iMTQuMDc3MjY4IiBzdHJva2UtbGluZWpvaW49InJvdW5kIiBzdHJva2UtbGluZWNhcD0icm91bmQiIHN0cm9rZT0iI2ZmZiIgZD0ibTM0Mi4wMDg5OSAzNzUuNTUzMjdoMTUyLjkyNzQxYzAtMTQuNTU5NjEgMC0xOC4wNjcxMSAwLTMyLjYyNjcyLTIwOC43NjQwNiAwIDU1LjgzNjY1IDAtMTUyLjkyNzQxIDB6Ii8+PHBhdGggc3Ryb2tlLXdpZHRoPSIyMC43Njc2NDMiIHN0cm9rZS1saW5lam9pbj0icm91bmQiIHN0cm9rZS1saW5lY2FwPSJyb3VuZCIgc3Ryb2tlPSIjZmZmIiBvcGFjaXR5PSIuMjUiIGQ9Im0zOS4wOTczOTYgNDk2LjU0Nzc3aDUwMS4xNjExOTRjMC0zOS41OTkyNCAwLTc5LjE5ODQ4IDAtMTE4Ljc5NzcyLTE2Ny4wNTM3MyAwLTMzNC4xMDc0NiAwLTUwMS4xNjExOTQgMHoiLz48cGF0aCBzdHJva2Utd2lkdGg9IjcuMzc5MzQ5IiBzdHJva2UtbGluZWpvaW49InJvdW5kIiBzdHJva2UtbGluZWNhcD0icm91bmQiIHN0cm9rZT0iI2ZmZiIgZD0ibTEzOC42NTM3MiA2OC4yODk3NjR2ODUuNzI4MjI2aDE1Ljk5MzE5YzAtMTE3LjAyOTE5NSAwIDMxLjMwMDk2IDAtODUuNzI4MjI2LTcuMTM2OTMgMC04Ljg1NjI3IDAtMTUuOTkzMTkgMHoiLz48L2c+PC9zdmc+;" parent="1" vertex="1">
          <mxGeometry x="170" y="220" width="50" height="50" as="geometry" />
        </mxCell>
        <mxCell id="J6gOtMhQ5AHENFdBQ14g-10" value="&lt;font style=&quot;font-size: 22px;&quot;&gt;&lt;b&gt;Gate Map&lt;/b&gt;&lt;/font&gt;" style="text;html=1;align=center;verticalAlign=middle;whiteSpace=wrap;rounded=0;fontSize=16;" vertex="1" parent="1">
          <mxGeometry x="118.75" y="170" width="182.5" height="30" as="geometry" />
        </mxCell>
      </root>
    </mxGraphModel>
  </diagram>
</mxfile>
